<?xml version="1.0" encoding="UTF-8"?> <svg xmlns="http://www.w3.org/2000/svg" width="57" height="56" viewBox="0 0 57 56" fill="none"> <rect x="0.333008" width="56" height="56" rx="9.33333" fill="#003859"></rect> <path d="M26.7778 15.5556H29.8889M28.3333 35.7778V35.7933M19 17.1111C19 16.286 19.3278 15.4947 19.9112 14.9112C20.4947 14.3278 21.286 14 22.1111 14H34.5556C35.3807 14 36.172 14.3278 36.7554 14.9112C37.3389 15.4947 37.6667 16.286 37.6667 17.1111V38.8889C37.6667 39.714 37.3389 40.5053 36.7554 41.0888C36.172 41.6722 35.3807 42 34.5556 42H22.1111C21.286 42 20.4947 41.6722 19.9112 41.0888C19.3278 40.5053 19 39.714 19 38.8889V17.1111Z" stroke="white" stroke-width="3" stroke-linecap="round" stroke-linejoin="round"></path> </svg> 