<?xml version="1.0" encoding="UTF-8"?> <svg xmlns="http://www.w3.org/2000/svg" width="57" height="56" viewBox="0 0 57 56" fill="none"> <rect x="0.666992" width="56" height="56" rx="9.33333" fill="#003859"></rect> <path d="M26.5119 39.6667H22.4441C21.619 39.6667 20.8277 39.3389 20.2442 38.7554C19.6608 38.172 19.333 37.3807 19.333 36.5555V17.8889C19.333 17.0638 19.6608 16.2724 20.2442 15.689C20.8277 15.1055 21.619 14.7778 22.4441 14.7778H34.8886C35.7137 14.7778 36.505 15.1055 37.0885 15.689C37.6719 16.2724 37.9997 17.0638 37.9997 17.8889V30.3333M33.333 38.1111L36.4441 41.2222L42.6663 35M25.5552 21H31.7775M25.5552 27.2222H28.6663" stroke="white" stroke-width="3" stroke-linecap="round" stroke-linejoin="round"></path> </svg> 