<svg width="14" height="14" viewBox="0 0 14 14" fill="none" xmlns="http://www.w3.org/2000/svg">
<path d="M7.00002 1.16669C3.78002 1.16669 1.16669 3.78002 1.16669 7.00002C1.16669 10.22 3.78002 12.8334 7.00002 12.8334C10.22 12.8334 12.8334 10.22 12.8334 7.00002C12.8334 3.78002 10.22 1.16669 7.00002 1.16669ZM7.58335 11.0834H6.41669V9.91669H7.58335V11.0834ZM8.79085 6.56252L8.26585 7.09919C7.84585 7.52502 7.58335 7.87502 7.58335 8.75002H6.41669V8.45835C6.41669 7.81669 6.67919 7.23335 7.09919 6.80752L7.82252 6.07252C8.03835 5.86252 8.16669 5.57085 8.16669 5.25002C8.16669 4.60835 7.64169 4.08335 7.00002 4.08335C6.35835 4.08335 5.83335 4.60835 5.83335 5.25002H4.66669C4.66669 3.96085 5.71085 2.91669 7.00002 2.91669C8.28919 2.91669 9.33335 3.96085 9.33335 5.25002C9.33335 5.76335 9.12335 6.23002 8.79085 6.56252Z" fill="#333333"/>
</svg>
