<svg width="24" height="24" viewBox="0 0 24 24" fill="none" xmlns="http://www.w3.org/2000/svg">
<path d="M0 12C0 5.37258 5.37258 0 12 0V0C18.6274 0 24 5.37258 24 12V12C24 18.6274 18.6274 24 12 24V24C5.37258 24 0 18.6274 0 12V12Z" fill="#BDBDBD"/>
<path d="M15.6001 9.59999H15.0001V8.39999C15.0001 6.74399 13.6561 5.39999 12.0001 5.39999C10.3441 5.39999 9.00007 6.74399 9.00007 8.39999V9.59999H8.40007C7.74007 9.59999 7.20007 10.14 7.20007 10.8V16.8C7.20007 17.46 7.74007 18 8.40007 18H15.6001C16.2601 18 16.8001 17.46 16.8001 16.8V10.8C16.8001 10.14 16.2601 9.59999 15.6001 9.59999ZM12.0001 15C11.3401 15 10.8001 14.46 10.8001 13.8C10.8001 13.14 11.3401 12.6 12.0001 12.6C12.6601 12.6 13.2001 13.14 13.2001 13.8C13.2001 14.46 12.6601 15 12.0001 15ZM13.8601 9.59999H10.1401V8.39999C10.1401 7.37399 10.9741 6.53999 12.0001 6.53999C13.0261 6.53999 13.8601 7.37399 13.8601 8.39999V9.59999Z" fill="white"/>
</svg>
