<svg width="24" height="24" viewBox="0 0 24 24" fill="none" xmlns="http://www.w3.org/2000/svg">
<path d="M14.7 22H22C21.7 17.8 22.3 14.1 21.3 11.6C19.4 6.60001 15.7 5.00001 14.9 2.90001C14.2 1.70001 13.5 2.00001 12.9 2.30001C9.7 3.90001 10.6 4.00001 8.1 5.40001C7.4 6.10001 6 7.00001 4.7 7.80001C3.7 8.40001 2.8 8.90001 2 9.20001C2.1 10.5 2.8 10.4 4.1 9.9C4.9 9.5 5.6 9.10001 6.2 9.00001C7.2 8.80001 8 8.40001 8.5 8.00001C10.9 7.80001 10.6 5.60001 10.9 5.60001C11 5.60001 10.6 6.80001 10.6 7.30001C10.6 7.50001 11.7 6.10001 11.7 6.10001C11.8 6.10001 10.9 7.50001 10.8 7.60001C10.8 7.70001 12.5 6.40001 12.5 6.50001C11.1 8.30001 9.1 8.8 7.4 8.9C6.7 8.9 3.9 9.80001 3.6 10.5C3.5 10.7 2.9 12.4 5.8 11.5C6.1 11.4 5.8 10.4 5.5 10.2C5.9 10.2 6.2 11 6.1 11.5C6.6 11.5 7 11.5 7.5 11.5C8.1 11.5 9.4 10.6 11.2 11.3C12.3 11.7 13.5 12.7 15 13C16.3 13.3 16.5 12.5 17.7 12.5C18.8 12.4 19.2 13.7 19.7 14.3C19.6 15 18.5 11.4 16.2 13.6C16.1 16.3 15.1 20.6 14.7 22Z" fill="black" fill-opacity="0.28"/>
</svg>
